{
  "accessors": [
    {
      "bufferView": 2,
      "componentType": 5126,
      "count": 342,
      "max": [
        0.9999997615814209,
        1.0,
        1.2030692100524902
      ],
      "min": [
        -0.9999997615814209,
        -1.0,
        -1.0000005960464478
      ],
      "type": "VEC3"
    },
    {
      "bufferView": 2,
      "byteOffset": 4104,
      "componentType": 5126,
      "count": 342,
      "max": [
        0.9999524354934692,
        1.0,
        0.9999598860740662
      ],
      "min": [
        -0.9999524354934692,
        -1.0,
        -0.9999595880508423
      ],
      "type": "VEC3"
    },
    {
      "bufferView": 1,
      "componentType": 5126,
      "count": 342,
      "max": [
        0.9917516112327576,
        0.9915447235107422
      ],
      "min": [
        0.009196460247039795,
        0.007320091128349304
      ],
      "type": "VEC2"
    },
    {
      "bufferView": 0,
      "componentType": 5125,
      "count": 1092,
      "type": "SCALAR"
    },
    {
      "bufferView": 2,
      "byteOffset": 8208,
      "componentType": 5126,
      "count": 246,
      "max": [
        0.5653817653656006,
        0.39512574672698975,
        0.5
      ],
      "min": [
        -0.5653817653656006,
        -0.5,
        -0.5
      ],
      "type": "VEC3"
    },
    {
      "bufferView": 2,
      "byteOffset": 11160,
      "componentType": 5126,
      "count": 246,
      "max": [
        0.9982817769050598,
        0.9947967529296875,
        1.0
      ],
      "min": [
        -0.9982829689979553,
        -0.99997478723526,
        -1.0
      ],
      "type": "VEC3"
    },
    {
      "bufferView": 1,
      "byteOffset": 2736,
      "componentType": 5126,
      "count": 246,
      "max": [
        0.9323528409004211,
        0.9855651259422302
      ],
      "min": [
        0.03560298681259155,
        0.003389645367860794
      ],
      "type": "VEC2"
    },
    {
      "bufferView": 0,
      "byteOffset": 4368,
      "componentType": 5125,
      "count": 708,
      "type": "SCALAR"
    },
    {
      "bufferView": 2,
      "byteOffset": 14112,
      "componentType": 5126,
      "count": 190,
      "max": [
        1.0171129703521729,
        1.1604413986206055,
        0.6003915667533875
      ],
      "min": [
        -1.0171128511428833,
        -1.1604413986206055,
        -1.015742301940918
      ],
      "type": "VEC3"
    },
    {
      "bufferView": 2,
      "byteOffset": 16392,
      "componentType": 5126,
      "count": 190,
      "max": [
        0.9999154210090637,
        1.0,
        0.9999279975891113
      ],
      "min": [
        -0.999915361404419,
        -1.0,
        -0.723048985004425
      ],
      "type": "VEC3"
    },
    {
      "bufferView": 1,
      "byteOffset": 4704,
      "componentType": 5126,
      "count": 190,
      "max": [
        0.9917516112327576,
        0.9915447235107422
      ],
      "min": [
        0.009196460247039795,
        0.34864673018455505
      ],
      "type": "VEC2"
    },
    {
      "bufferView": 0,
      "byteOffset": 7200,
      "componentType": 5125,
      "count": 648,
      "type": "SCALAR"
    },
    {
      "bufferView": 2,
      "byteOffset": 18672,
      "componentType": 5126,
      "count": 152,
      "max": [
        0.7799330949783325,
        1.1604413986206055,
        1.2188022136688232
      ],
      "min": [
        -0.7799671292304993,
        -1.1604413986206055,
        0.5877830982208252
      ],
      "type": "VEC3"
    },
    {
      "bufferView": 2,
      "byteOffset": 20496,
      "componentType": 5126,
      "count": 152,
      "max": [
        0.8866283297538757,
        0.9999999403953552,
        -0.000517509353812784
      ],
      "min": [
        -0.8866285085678101,
        -0.9999999403953552,
        -0.999931275844574
      ],
      "type": "VEC3"
    },
    {
      "bufferView": 1,
      "byteOffset": 6224,
      "componentType": 5126,
      "count": 152,
      "max": [
        0.9911777973175049,
        0.5756793022155762
      ],
      "min": [
        0.09540430456399918,
        0.007320091128349304
      ],
      "type": "VEC2"
    },
    {
      "bufferView": 0,
      "byteOffset": 9792,
      "componentType": 5125,
      "count": 444,
      "type": "SCALAR"
    },
    {
      "bufferView": 2,
      "byteOffset": 22320,
      "componentType": 5126,
      "count": 246,
      "max": [
        0.5897754430770874,
        0.40451303124427795,
        0.5401325225830078
      ],
      "min": [
        -0.5897775888442993,
        -0.5098692178726196,
        -0.5401325225830078
      ],
      "type": "VEC3"
    },
    {
      "bufferView": 2,
      "byteOffset": 25272,
      "componentType": 5126,
      "count": 246,
      "max": [
        0.9976145625114441,
        0.9999467134475708,
        0.9999991655349731
      ],
      "min": [
        -0.9976110458374023,
        -0.9945938587188721,
        -0.9999992251396179
      ],
      "type": "VEC3"
    },
    {
      "bufferView": 1,
      "byteOffset": 7440,
      "componentType": 5126,
      "count": 246,
      "max": [
        0.9323528409004211,
        0.9855651259422302
      ],
      "min": [
        0.03560298681259155,
        0.003389645367860794
      ],
      "type": "VEC2"
    },
    {
      "bufferView": 0,
      "byteOffset": 11568,
      "componentType": 5125,
      "count": 708,
      "type": "SCALAR"
    }
  ],
  "asset": {
    "extras": {
      "author": "PolyChromic (https://sketchfab.com/PolyChromicDesing)",
      "license": "CC-BY-4.0 (http://creativecommons.org/licenses/by/4.0/)",
      "source": "https://sketchfab.com/3d-models/ping-pong-racket-cee4b24f04c842688dc2e5cbc1cabfb5",
      "title": "Ping Pong Racket"
    },
    "generator": "Sketchfab-12.66.0",
    "version": "2.0"
  },
  "bufferViews": [
    {
      "buffer": 0,
      "byteLength": 14400,
      "name": "floatBufferViews",
      "target": 34963
    },
    {
      "buffer": 0,
      "byteLength": 9408,
      "byteOffset": 14400,
      "byteStride": 8,
      "name": "floatBufferViews",
      "target": 34962
    },
    {
      "buffer": 0,
      "byteLength": 28224,
      "byteOffset": 23808,
      "byteStride": 12,
      "name": "floatBufferViews",
      "target": 34962
    }
  ],
  "buffers": [
    {
      "byteLength": 52032,
      "uri": "scene.bin"
    }
  ],
  "extensionsUsed": [
    "KHR_materials_unlit"
  ],
  "images": [
    {
      "uri": "textures/lambert3_baseColor.png"
    },
    {
      "uri": "textures/lambert2_baseColor.png"
    }
  ],
  "materials": [
    {
      "doubleSided": true,
      "extensions": {
        "KHR_materials_unlit": {}
      },
      "name": "lambert3",
      "pbrMetallicRoughness": {
        "baseColorTexture": {
          "index": 0
        },
        "metallicFactor": 0.0
      }
    },
    {
      "doubleSided": true,
      "extensions": {
        "KHR_materials_unlit": {}
      },
      "name": "lambert2",
      "pbrMetallicRoughness": {
        "baseColorTexture": {
          "index": 1
        },
        "metallicFactor": 0.0
      }
    },
    {
      "extensions": {
        "KHR_materials_unlit": {}
      },
      "name": "lambert4",
      "pbrMetallicRoughness": {
        "baseColorFactor": [
          0.6592412686351545,
          0.07787010814415016,
          0.0,
          1.0
        ],
        "metallicFactor": 0.0
      }
    },
    {
      "extensions": {
        "KHR_materials_unlit": {}
      },
      "name": "lambert6",
      "pbrMetallicRoughness": {
        "baseColorFactor": [
          0.2482802702197365,
          0.05325123362831887,
          0.0,
          1.0
        ],
        "metallicFactor": 0.0
      }
    },
    {
      "extensions": {
        "KHR_materials_unlit": {}
      },
      "name": "lambert5",
      "pbrMetallicRoughness": {
        "baseColorFactor": [
          0.25015828472995333,
          0.052860647023180246,
          0.0,
          1.0
        ],
        "metallicFactor": 0.0
      }
    }
  ],
  "meshes": [
    {
      "name": "pCylinder1_lambert3_0",
      "primitives": [
        {
          "attributes": {
            "NORMAL": 1,
            "POSITION": 0,
            "TEXCOORD_0": 2
          },
          "indices": 3,
          "material": 0,
          "mode": 4
        }
      ]
    },
    {
      "name": "pCube1_lambert2_0",
      "primitives": [
        {
          "attributes": {
            "NORMAL": 5,
            "POSITION": 4,
            "TEXCOORD_0": 6
          },
          "indices": 7,
          "material": 1,
          "mode": 4
        }
      ]
    },
    {
      "name": "pCylinder2_lambert4_0",
      "primitives": [
        {
          "attributes": {
            "NORMAL": 9,
            "POSITION": 8,
            "TEXCOORD_0": 10
          },
          "indices": 11,
          "material": 2,
          "mode": 4
        }
      ]
    },
    {
      "name": "pCylinder2_lambert6_0",
      "primitives": [
        {
          "attributes": {
            "NORMAL": 13,
            "POSITION": 12,
            "TEXCOORD_0": 14
          },
          "indices": 15,
          "material": 3,
          "mode": 4
        }
      ]
    },
    {
      "name": "pCube2_lambert5_0",
      "primitives": [
        {
          "attributes": {
            "NORMAL": 17,
            "POSITION": 16,
            "TEXCOORD_0": 18
          },
          "indices": 19,
          "material": 4,
          "mode": 4
        }
      ]
    }
  ],
  "nodes": [
    {
      "children": [
        1
      ],
      "matrix": [
        -1.0,
        0.0,
        0.0,
        0.0,
        0.0,
        -2.220446049250313e-16,
        1.0,
        0.0,
        0.0,
        1.0,
        2.220446049250313e-16,
        0.0,
        7.677100256842095e-06,
        5.824230114095114e-23,
        -2.6230000571558776e-07,
        1.0
      ],
      "name": "Sketchfab_model"
    },
    {
      "children": [
        2
      ],
      "matrix": [
        1.0,
        0.0,
        0.0,
        0.0,
        0.0,
        0.0,
        1.0,
        0.0,
        0.0,
        -1.0,
        0.0,
        0.0,
        0.0,
        0.0,
        0.0,
        1.0
      ],
      "name": "d22a6ffeeea34c81a2e24ea9751eb6f3.fbx"
    },
    {
      "children": [
        3,
        5,
        7,
        10
      ],
      "name": "RootNode"
    },
    {
      "children": [
        4
      ],
      "matrix": [
        1.149999976158142,
        0.0,
        0.0,
        0.0,
        0.0,
        2.7755575615628914e-17,
        0.125,
        0.0,
        0.0,
        -1.25,
        2.7755575615628914e-16,
        0.0,
        0.0,
        2.299999952316284,
        0.0,
        1.0
      ],
      "name": "pCylinder1"
    },
    {
      "mesh": 0,
      "name": "pCylinder1_lambert3_0"
    },
    {
      "children": [
        6
      ],
      "matrix": [
        0.639427125453949,
        0.0,
        0.0,
        0.0,
        0.0,
        1.600000023841858,
        0.0,
        0.0,
        0.0,
        0.0,
        0.4000000059604645,
        0.0,
        0.0,
        0.800000011920929,
        0.0,
        1.0
      ],
      "name": "pCube1"
    },
    {
      "mesh": 1,
      "name": "pCube1_lambert2_0"
    },
    {
      "children": [
        8,
        9
      ],
      "matrix": [
        1.149999976158142,
        0.0,
        0.0,
        0.0,
        0.0,
        2.7755575615628914e-17,
        0.125,
        0.0,
        0.0,
        -1.25,
        2.7755575615628914e-16,
        0.0,
        0.0,
        2.299999952316284,
        0.0,
        1.0
      ],
      "name": "pCylinder2"
    },
    {
      "mesh": 2,
      "name": "pCylinder2_lambert4_0"
    },
    {
      "mesh": 3,
      "name": "pCylinder2_lambert6_0"
    },
    {
      "children": [
        11
      ],
      "matrix": [
        0.639427125453949,
        0.0,
        0.0,
        0.0,
        0.0,
        1.600000023841858,
        0.0,
        0.0,
        0.0,
        0.0,
        0.4000000059604645,
        0.0,
        0.0,
        0.800000011920929,
        0.0,
        1.0
      ],
      "name": "pCube2"
    },
    {
      "mesh": 4,
      "name": "pCube2_lambert5_0"
    }
  ],
  "samplers": [
    {
      "magFilter": 9729,
      "minFilter": 9987,
      "wrapS": 10497,
      "wrapT": 10497
    }
  ],
  "scene": 0,
  "scenes": [
    {
      "name": "Sketchfab_Scene",
      "nodes": [
        0
      ]
    }
  ],
  "textures": [
    {
      "sampler": 0,
      "source": 0
    },
    {
      "sampler": 0,
      "source": 1
    }
  ]
}
